<svg id="visual" viewBox="0 0 900 600" width="900" height="600" xmlns="http://www.w3.org/2000/svg" xmlns:xlink="http://www.w3.org/1999/xlink" version="1.1"><rect x="0" y="0" width="900" height="600" fill="#EBEBEB"></rect><path d="M0 125L18.8 122.5C37.7 120 75.3 115 112.8 112.3C150.3 109.7 187.7 109.3 225.2 114.8C262.7 120.3 300.3 131.7 337.8 131.2C375.3 130.7 412.7 118.3 450.2 115.2C487.7 112 525.3 118 562.8 121.7C600.3 125.3 637.7 126.7 675.2 126.8C712.7 127 750.3 126 787.8 120.8C825.3 115.7 862.7 106.3 881.3 101.7L900 97L900 0L881.3 0C862.7 0 825.3 0 787.8 0C750.3 0 712.7 0 675.2 0C637.7 0 600.3 0 562.8 0C525.3 0 487.7 0 450.2 0C412.7 0 375.3 0 337.8 0C300.3 0 262.7 0 225.2 0C187.7 0 150.3 0 112.8 0C75.3 0 37.7 0 18.8 0L0 0Z" fill="#F45B69" stroke-linecap="round" stroke-linejoin="miter"></path></svg>