<svg id="visual" viewBox="0 0 900 600" width="900" height="600" xmlns="http://www.w3.org/2000/svg" xmlns:xlink="http://www.w3.org/1999/xlink" version="1.1"><rect x="0" y="0" width="900" height="600" fill="#EBEBEB"></rect><path d="M484 0L485.5 14.3C487 28.7 490 57.3 487.3 85.8C484.7 114.3 476.3 142.7 471.3 171.2C466.3 199.7 464.7 228.3 467.8 257C471 285.7 479 314.3 479.5 343C480 371.7 473 400.3 472.2 428.8C471.3 457.3 476.7 485.7 479.8 514.2C483 542.7 484 571.3 484.5 585.7L485 600L0 600L0 585.7C0 571.3 0 542.7 0 514.2C0 485.7 0 457.3 0 428.8C0 400.3 0 371.7 0 343C0 314.3 0 285.7 0 257C0 228.3 0 199.7 0 171.2C0 142.7 0 114.3 0 85.8C0 57.3 0 28.7 0 14.3L0 0Z" fill="#F45B69" stroke-linecap="round" stroke-linejoin="miter"></path></svg>